<svg id="Logo" xmlns="http://www.w3.org/2000/svg" xmlns:xlink="http://www.w3.org/1999/xlink" viewBox="0 0 60.99 41.97"><defs><style>.cls-1{fill:url(#linear-gradient);}</style><linearGradient id="linear-gradient" x1="30.5" y1="6.03" x2="30.5" y2="41.13" gradientUnits="userSpaceOnUse"><stop offset="0" stop-color="red"/><stop offset="1" stop-color="#c1272d"/></linearGradient></defs><title>logo</title><path class="cls-1" d="M57.64,14.2a35.91,35.91,0,0,0,1.53-13A37.44,37.44,0,0,1,45,10.14c-2.71-.3-8.48-2.94-10.25-4.23-1.53,1.41-4.23,4.35-4.23,4.35s-2.7-2.94-4.23-4.35C24.5,7.2,18.72,9.83,16,10.14A37.44,37.44,0,0,1,1.82,1.21a35.91,35.91,0,0,0,1.53,13,53.69,53.69,0,0,0,14.51.24c-2.64,1.41-9.59,3.35-13.28,4.18a23.38,23.38,0,0,0,2.93,7.57C10,25.72,19.8,22.66,19.8,22.66S14,26.44,9.11,29c1.41,3,6.91,9.5,10.81,11.74a37.19,37.19,0,0,1-.71-5.52c2.21-2.53,6.58-5.44,8.58-6.84H33.2c2,1.4,6.37,4.31,8.58,6.84a37.19,37.19,0,0,1-.71,5.52C45,38.53,50.48,32.07,51.88,29c-4.94-2.59-10.69-6.36-10.69-6.36S51,25.72,53.48,26.19a23.38,23.38,0,0,0,2.93-7.57c-3.69-.83-10.63-2.77-13.28-4.18A53.69,53.69,0,0,0,57.64,14.2Z"/></svg>